HIERARCHY
ROOT Hips
{
	OFFSET	0.000000	0.000000	0.000000
	CHANNELS 6 Xposition Yposition Zposition Zrotation Xrotation Yrotation
	JOINT LeftHip
	{
		OFFSET	4.822834	0.000000	0.000000
		CHANNELS 3 Zrotation Xrotation Yrotation
		JOINT LeftKnee
		{
			OFFSET	0.000000	-16.338583	0.000000
			CHANNELS 3 Zrotation Xrotation Yrotation
			JOINT LeftAnkle
			{
				OFFSET	0.000000	-15.354330	0.000000
				CHANNELS 3 Zrotation Xrotation Yrotation
				End Site
				{
					OFFSET	0.000000	-4.921260	-3.149606
				}
			}
		}
	}
	JOINT RightHip
	{
		OFFSET	-4.822834	0.000000	0.000000
		CHANNELS 3 Zrotation Xrotation Yrotation
		JOINT RightKnee
		{
			OFFSET	0.000000	-16.338583	0.000000
			CHANNELS 3 Zrotation Xrotation Yrotation
			JOINT RightAnkle
			{
				OFFSET	0.000000	-15.354330	0.000000
				CHANNELS 3 Zrotation Xrotation Yrotation
				End Site
				{
					OFFSET	0.000000	-4.921260	-3.149606
				}
			}
		}
	}
	JOINT Chest
	{
		OFFSET	0.000000	2.952756	-2.755905
		CHANNELS 3 Zrotation Xrotation Yrotation
		JOINT LeftCollar
		{
			OFFSET	0.000000	20.078739	2.755905
			CHANNELS 3 Zrotation Xrotation Yrotation
			JOINT LeftShoulder
			{
				OFFSET	7.086614	0.000000	0.000000
				CHANNELS 3 Zrotation Xrotation Yrotation
				JOINT LeftElbow
				{
					OFFSET	0.000000	-11.220472	0.000000
					CHANNELS 3 Zrotation Xrotation Yrotation
					JOINT LeftWrist
					{
						OFFSET	0.000000	-9.448818	0.000000
						CHANNELS 3 Zrotation Xrotation Yrotation
						End Site
						{
							OFFSET	0.000000	-6.299212	0.000000
						}
					}
				}
			}
		}
		JOINT RightCollar
		{
			OFFSET	0.000000	20.078739	2.755905
			CHANNELS 3 Zrotation Xrotation Yrotation
			JOINT RightShoulder
			{
				OFFSET	-7.086614	0.000000	0.000000
				CHANNELS 3 Zrotation Xrotation Yrotation
				JOINT RightElbow
				{
					OFFSET	0.000000	-11.220472	0.000000
					CHANNELS 3 Zrotation Xrotation Yrotation
					JOINT RightWrist
					{
						OFFSET	0.000000	-9.448818	0.000000
						CHANNELS 3 Zrotation Xrotation Yrotation
						End Site
						{
							OFFSET	0.000000	-6.299212	0.000000
						}
					}
				}
			}
		}
		JOINT Neck
		{
			OFFSET	0.000000	20.078739	2.755905
			CHANNELS 3 Zrotation Xrotation Yrotation
			JOINT Head
			{
				OFFSET	0.000000	2.362205	0.000000
				CHANNELS 3 Zrotation Xrotation Yrotation
				End Site
				{
					OFFSET	0.000000	7.086614	0.000000
				}
			}
		}
	}
}
MOTION
Frames:     22
Frame Time: 0.041667
7.079873	36.639538	5.302115	-0.360529	2.779665	14.263397	-0.197102	-1.175055	0.466567	0.000000	5.372066	0.000000	-2.131017	-0.892748	2.502434	-0.342722	-2.634259	-0.753739	0.000000	5.943662	0.000000	0.921881	-1.114204	-2.096992	2.658247	-0.048439	2.692874	-18.450338	0.805406	0.020391	23.583242	9.459870	7.632963	-4.000000	-19.911375	0.000000	-4.977058	-4.645466	-10.890278	15.549660	0.805406	0.020391	-27.422909	7.999835	3.735786	4.000000	-27.895172	0.000000	8.888635	1.694412	6.339534	-1.534059	4.059748	0.133704	0.115222	-0.938680	7.002927	
7.025372	36.642624	5.254937	-0.292436	2.760736	14.463023	-0.197102	-1.175055	0.466567	0.000000	5.372066	0.000000	-2.131017	-0.892748	2.502434	-0.342722	-2.634259	-0.753739	0.000000	5.950148	0.000000	0.913037	-1.361636	-2.097090	2.658247	-0.048439	2.692874	-18.450401	0.966487	0.024470	23.583242	9.459870	7.632963	-4.000000	-19.911375	0.000000	-4.977058	-4.645466	-10.890278	15.549599	0.966487	0.024470	-27.422909	7.999835	3.735786	4.000000	-27.895172	0.000000	8.888635	1.694412	6.339534	-1.534059	4.059748	0.133704	-0.079083	-1.016350	7.140574	
6.997846	36.647106	5.276877	-0.226558	2.742323	14.654627	-0.197102	-1.175055	0.466567	0.000000	5.544927	0.000000	-2.138051	-0.727786	2.502484	-0.342722	-2.634259	-0.753739	0.000000	6.092617	0.000000	0.902542	-1.336973	-2.500473	2.819354	-0.048574	2.690065	-18.450401	0.966487	0.024470	23.583242	9.459870	7.632963	-4.000000	-19.722113	0.000000	-5.294285	-4.581181	-10.902980	15.549599	0.966487	0.024470	-27.422909	7.999835	3.735786	4.000000	-28.088530	0.000000	8.888635	1.694412	6.339534	-1.533330	4.019664	0.133642	-0.225070	-0.875913	7.236504	
6.951819	36.650269	5.240262	-0.168058	2.726286	14.824333	-0.197102	-1.175055	0.466567	0.000000	5.545252	0.000000	-2.379516	-0.738633	2.502780	-0.342722	-2.634259	-0.753739	0.000000	6.096905	0.000000	0.895511	-1.501851	-2.500586	2.819354	-0.048574	2.690065	-18.450401	0.966487	0.024470	23.583242	9.459870	7.632963	-4.000000	-19.537085	0.000000	-5.928611	-4.452292	-10.927248	15.549599	0.966487	0.024470	-27.422909	7.999835	3.735786	4.000000	-28.088530	0.000000	8.888635	1.694412	6.339534	-1.533330	4.019664	0.133642	-0.371370	-0.944712	7.375326	
6.921177	36.653206	5.275873	-0.106284	2.709608	15.004000	-0.197102	-1.175055	0.466567	0.000000	5.545252	0.000000	-2.379516	-0.738633	2.502780	-0.342722	-2.634259	-0.753739	0.000000	6.274151	0.000000	0.895511	-1.501851	-2.500586	2.819354	-0.048574	2.690065	-18.450401	0.966487	0.024470	23.583242	9.459870	7.632963	-4.000000	-19.178938	0.000000	-6.595919	-4.053725	-10.948372	15.549599	0.966487	0.024470	-27.617836	7.988603	3.762895	4.000000	-28.088530	0.000000	8.888635	1.694412	6.339534	-1.559764	4.019602	0.135946	-0.479972	-1.158653	7.548220	
6.879142	36.659843	5.240707	-0.042720	2.692723	15.188985	-0.197102	-1.175055	0.466567	0.000000	5.540843	0.000000	-2.386551	-0.573650	2.502867	-0.342722	-2.634259	-0.753739	0.000000	6.246219	0.000000	0.886173	-1.481924	-2.823308	2.819492	0.112559	2.690065	-18.450401	0.966487	0.024470	23.876932	9.445904	7.584728	-4.000000	-19.008812	0.000000	-7.833407	-3.200835	-10.494513	15.549599	0.966487	0.024470	-27.617836	7.988603	3.762895	4.000000	-28.088530	0.000000	8.888635	1.694412	6.339534	-1.559764	4.019602	0.135946	-0.604016	-1.338521	7.667257	
6.849511	36.659782	5.250529	0.018580	2.676543	15.367492	-0.035959	-1.177816	0.469876	0.000000	5.718309	0.000000	-2.547528	-0.580886	2.503049	-0.342722	-2.634259	-0.753739	0.000000	6.408831	0.000000	0.866222	-1.714039	-3.065617	2.980825	0.354116	2.687255	-18.450401	0.966487	0.024470	24.057062	9.122717	6.814561	-4.000000	-18.468321	0.000000	-9.371618	-2.140258	-10.036278	15.549599	0.966487	0.024470	-27.617836	7.988603	3.762895	4.000000	-28.088530	0.000000	8.888635	1.694412	6.339534	-1.585668	3.992826	0.138204	-0.662234	-1.400499	7.796045	
6.814352	36.659153	5.266363	0.082278	2.659838	15.553759	-0.035959	-1.177816	0.469876	0.000000	5.738991	0.000000	-2.550702	-0.588920	2.260741	-0.342722	-2.634259	-0.753739	0.000000	6.592398	0.000000	0.853292	-1.961138	-3.065945	2.980825	0.354116	2.848388	-18.611639	1.127484	0.031721	24.334526	8.794562	5.926836	-4.000000	-18.118221	0.000000	-10.765683	-1.134821	-9.563958	15.388358	1.127484	0.031721	-27.605530	7.779643	3.753079	4.000000	-28.088530	0.000000	8.888635	1.694412	6.339534	-1.585138	3.966120	0.138159	-0.868956	-1.555271	7.999501	
6.797554	36.663605	5.327411	0.152033	2.641837	15.757066	0.125185	-1.180568	0.473192	0.000000	5.752749	0.000000	-2.391665	-0.594223	2.098797	-0.345367	-2.473193	-0.750005	0.000000	6.564291	0.000000	0.841182	-1.940807	-3.388731	2.980825	0.354116	2.687255	-18.611639	1.127484	0.031721	24.323912	8.585388	4.981924	-4.000000	-17.925951	0.000000	-11.814170	-0.482202	-9.163462	15.388358	1.127484	0.031721	-27.605530	7.779643	3.753079	4.000000	-28.281889	0.000000	8.888635	1.694412	6.339534	-1.610416	3.912671	0.140364	-1.043732	-1.674332	8.247396	
6.770028	36.669552	5.296265	0.211059	2.626791	15.928329	0.125185	-1.180568	0.473192	0.000000	5.748312	0.000000	-2.397565	-0.429168	2.098913	-0.345367	-2.473193	-0.750005	0.000000	6.549927	0.000000	0.674309	-1.920363	-3.549638	3.142105	0.515098	2.684446	-18.611639	1.127484	0.031721	24.595301	8.152375	4.097818	-4.000000	-17.805326	0.000000	-12.791140	0.093540	-8.923542	15.388358	1.127484	0.031721	-27.605530	7.779643	3.753079	4.000000	-28.281889	0.000000	8.888635	1.694412	6.339534	-1.610416	3.912671	0.140364	-1.384479	-2.007929	8.434158	
6.651002	36.672134	5.378160	0.264797	2.613291	16.083748	0.283595	-1.344380	0.480081	0.000000	5.748498	0.000000	-2.558589	-0.435239	2.099051	-0.184106	-2.470535	-0.743050	0.000000	6.722967	0.000000	0.684288	-1.755717	-3.549364	3.142105	0.515098	2.684446	-18.611639	1.127484	0.031721	24.595301	8.152375	3.888346	-4.000000	-17.641756	0.000000	-13.549530	0.481722	-8.924980	15.388358	1.127484	0.031721	-27.605530	7.779643	3.753079	4.000000	-28.281889	0.000000	8.888635	1.694412	6.339534	-1.609548	3.872653	0.140290	-1.582805	-2.093611	8.589009	
6.665157	36.677551	5.469785	0.319608	2.599850	16.242126	0.119707	-1.502725	0.318275	0.000000	5.755511	0.000000	-2.568392	-0.192399	1.937766	-0.186781	-2.309460	-0.739764	0.000000	6.716197	0.000000	0.458041	-1.493373	-3.548193	3.142413	0.837364	2.684442	-18.611639	1.127484	0.031721	24.595301	8.152375	3.888346	-4.000000	-17.657740	0.000000	-13.763315	0.691485	-8.924067	15.388358	1.127484	0.031721	-27.605530	7.779643	3.753079	4.000000	-28.281889	0.000000	8.888635	1.694412	6.339534	-1.609548	3.872653	0.140290	-1.764421	-2.458788	8.813203	
6.614349	36.679867	5.425915	0.383802	2.584590	16.428612	0.280872	-1.505449	0.322505	0.000000	5.769202	0.000000	-2.569322	-0.197158	1.776258	-0.186781	-2.309460	-0.739764	0.000000	6.722558	0.000000	0.443077	-1.740391	-3.548570	3.142645	1.079063	2.684438	-18.611639	1.127484	0.031721	24.595301	8.152375	3.888346	-4.000000	-17.687553	0.000000	-13.930872	0.701511	-8.680450	15.388358	1.127484	0.031721	-27.605530	7.779643	3.753079	4.000000	-28.281889	0.000000	8.888635	1.694412	6.339534	-1.675393	3.872488	0.146028	-1.686367	-2.706932	9.025094	
6.464022	36.685875	5.419629	0.473103	2.564388	16.694979	0.280872	-1.505449	0.161372	0.000000	5.782925	0.000000	-2.577147	0.043510	1.534264	-0.025540	-2.306773	-0.733270	0.000000	6.722287	0.000000	0.282271	-1.730179	-3.548004	3.142645	1.079063	2.684438	-18.611639	1.127484	0.031721	24.595301	8.152375	3.888346	-4.000000	-17.687553	0.000000	-13.930872	0.701511	-8.680450	15.388358	1.127484	0.031721	-27.605530	7.779643	3.753079	4.000000	-28.281889	0.000000	8.888635	1.694412	6.339534	-1.740188	3.832320	0.151676	-1.532932	-2.865771	9.273900	
6.399570	36.693886	5.380845	0.564169	2.545080	16.969776	0.278159	-1.666518	0.164922	0.000000	5.810154	0.000000	-2.577516	0.034177	1.211254	-0.025540	-2.306773	-0.733270	0.000000	6.708132	0.000000	0.276755	-1.718323	-3.709269	3.142645	1.079063	2.684438	-18.611639	1.127484	0.031721	24.595301	8.152375	3.888346	-4.000000	-17.687553	0.000000	-13.930872	0.701511	-8.680450	15.388358	1.127484	0.031721	-27.605530	7.779643	3.753079	4.000000	-28.281889	0.000000	8.888635	1.694412	6.339534	-1.805144	3.805489	0.157337	-1.337080	-3.249008	9.480450	
6.328461	36.702850	5.336316	0.665537	2.524855	17.280537	0.274107	-1.908122	0.170233	0.000000	5.816899	0.000000	-2.582097	0.277409	1.050041	-0.025540	-2.306773	-0.733270	0.000000	6.686855	0.000000	0.268476	-1.700471	-3.951161	3.142645	1.079063	2.684438	-18.611639	1.127484	0.031721	24.595301	8.152375	3.888346	-4.000000	-17.707441	0.000000	-13.935151	0.707889	-8.516481	15.388358	1.127484	0.031721	-27.605530	7.779643	3.753079	4.000000	-28.281889	0.000000	8.888635	1.694412	6.339534	-1.857577	3.805343	0.161905	-1.191642	-3.764255	9.673704	
6.228666	36.699543	5.396410	0.698697	2.484231	17.655382	0.271417	-2.069192	0.173765	0.000000	6.014462	0.000000	-2.581262	0.270524	0.807785	0.135701	-2.304068	-0.726784	0.000000	6.931396	0.000000	0.260191	-1.682536	-4.193048	2.981483	1.079213	2.687247	-18.611639	1.127484	0.031721	24.595301	8.152375	3.888346	-4.000000	-17.707441	0.000000	-13.935151	0.707889	-8.516481	15.388358	1.127484	0.031721	-27.605530	7.779643	3.753079	4.000000	-28.281889	0.000000	8.888635	1.694412	6.339534	-1.909210	3.778549	0.166406	-0.971622	-4.222405	9.805144	
6.204130	36.700012	5.303288	0.714727	2.415494	18.049547	0.429971	-2.232926	0.022434	0.000000	6.030131	0.000000	-2.581970	0.428981	0.565728	0.135701	-2.304068	-0.887917	0.000000	6.914218	0.000000	0.239434	-1.828990	-4.435293	2.981483	1.079213	2.928946	-18.611639	1.127484	0.031721	24.779499	7.933296	3.860100	-4.000000	-17.707441	0.000000	-13.935151	0.707889	-8.516481	15.388358	1.127484	0.031721	-27.605530	7.779643	3.753079	4.000000	-28.283382	0.000000	9.048759	1.713432	6.340307	-1.986444	3.738368	0.173137	-0.702870	-4.936400	9.911991	
6.155352	36.700966	5.251917	0.873919	2.206419	18.446472	0.429971	-2.232926	0.022434	0.000000	6.588793	0.000000	-2.418674	0.419950	0.242640	0.135701	-2.304068	-0.726784	0.000000	7.327834	0.000000	0.042975	-2.045206	-4.838200	2.982142	1.804310	3.090063	-18.611639	1.127484	0.031721	24.779499	7.933296	3.860100	-4.000000	-17.727333	0.000000	-13.939403	0.714262	-8.352510	15.388358	1.127484	0.031721	-27.605530	7.779643	3.753079	4.000000	-28.281889	0.000000	8.888635	1.694412	6.339534	-2.037785	3.711588	0.177612	-0.665809	-5.815553	9.971067	
5.998960	36.696945	5.224771	1.027439	1.965597	18.807392	0.427320	-2.393985	0.026405	0.000000	7.052035	0.000000	-2.416995	0.413224	0.000439	0.296941	-2.301345	-0.720305	0.000000	7.748431	0.000000	0.007885	-2.267018	-5.161487	2.983241	3.012806	3.412282	-18.611732	1.288553	0.036254	24.974464	7.923308	3.833207	-4.000000	-17.920694	0.000000	-14.181038	0.714898	-8.355765	15.388263	1.288553	0.036254	-27.593264	7.570681	3.743313	4.000000	-28.668606	0.000000	8.888635	1.694412	6.339534	-2.077706	3.738087	0.181088	-0.544431	-6.499515	10.081277	
5.967942	36.697037	5.273162	1.165335	1.830163	19.175224	0.424679	-2.555045	-0.130763	0.000000	7.337973	0.000000	-2.254136	0.406543	-0.241738	0.294204	-2.140249	-0.718372	0.000000	7.989591	0.000000	-0.022225	-2.406312	-5.484619	3.145115	3.657187	3.651133	-18.772907	1.288446	0.039878	24.963491	7.714122	3.833287	-4.000000	-17.920694	0.000000	-14.181038	0.714898	-8.355765	15.227087	1.288446	0.039878	-27.593264	7.570681	3.743313	4.000000	-28.861969	0.000000	8.888635	1.694412	6.339534	-2.155776	3.737836	0.187890	-0.245439	-6.715496	10.136780	
5.902802	36.702263	5.261374	1.288060	1.770596	19.534903	0.422049	-2.716105	-0.126806	0.000000	7.725785	0.000000	-2.251149	0.395504	-0.645311	0.294204	-2.140249	-0.718372	0.000000	8.152400	0.000000	-0.030027	-2.393794	-5.645883	3.144806	3.334921	3.651152	-18.773308	1.771613	0.054840	24.936085	7.191157	3.833306	-4.000000	-17.920694	0.000000	-14.422672	0.715548	-8.359019	15.226689	1.771613	0.054840	-27.581038	7.361717	3.733598	4.000000	-29.055328	0.000000	8.888635	1.694412	6.339534	-2.196067	3.777655	0.191397	-0.089073	-6.839226	10.256377	
